<svg width="103" height="27" viewBox="0 0 103 27" fill="none" xmlns="http://www.w3.org/2000/svg">
<path d="M0.876465 0.737305V26.6084H4.59039V7.8746H4.8304L12.4604 26.5705H15.5427L23.1726 7.88723H23.4126V26.6084H27.1266V0.737305H22.3894L14.1531 20.8481H13.8499L5.61361 0.737305H0.876465Z" fill="white"/>
<path d="M40.8611 27C45.093 27 48.0868 24.9157 48.9458 21.7576L45.3709 21.1133C44.6887 22.945 43.0465 23.8798 40.899 23.8798C37.6651 23.8798 35.4924 21.7829 35.3913 18.0437H49.1859V16.7046C49.1859 9.69367 44.9919 6.95244 40.5958 6.95244C35.1892 6.95244 31.6268 11.0706 31.6268 17.0331C31.6268 23.0587 35.1386 27 40.8611 27ZM35.4039 15.214C35.5555 12.4602 37.5514 10.0726 40.6211 10.0726C43.5518 10.0726 45.4719 12.2454 45.4846 15.214H35.4039Z" fill="white"/>
<path d="M67.9165 11.9422C67.1333 8.92309 64.7711 6.95244 60.5771 6.95244C56.1937 6.95244 53.0861 9.26416 53.0861 12.7002C53.0861 15.454 54.7536 17.2857 58.3917 18.0942L61.6761 18.8142C63.5457 19.2311 64.4174 20.0649 64.4174 21.2776C64.4174 22.7808 62.813 23.9556 60.3371 23.9556C58.0759 23.9556 56.6232 22.9829 56.1684 21.0754L52.5177 21.6313C53.1493 25.0673 56.0042 27 60.3624 27C65.049 27 68.2955 24.5115 68.2955 20.9997C68.2955 18.2584 66.5522 16.5657 62.9899 15.7446L59.9076 15.0372C57.7727 14.5319 56.8506 13.8118 56.8632 12.4981C56.8506 11.0074 58.4675 9.94631 60.615 9.94631C62.9646 9.94631 64.051 11.2474 64.4932 12.5486L67.9165 11.9422Z" fill="white"/>
<path d="M81.5058 7.20509H77.5266V2.55637H73.7495V7.20509H70.9072V10.2369H73.7495V21.6944C73.7369 25.2189 76.4276 26.9242 79.4088 26.8611C80.6089 26.8484 81.4174 26.6211 81.8595 26.4568L81.1774 23.3366C80.9247 23.3872 80.4573 23.5009 79.851 23.5009C78.6256 23.5009 77.5266 23.0966 77.5266 20.9112V10.2369H81.5058V7.20509Z" fill="white"/>
<path d="M93.6487 27C99.1185 27 102.693 22.9956 102.693 16.9952C102.693 10.9569 99.1185 6.95244 93.6487 6.95244C88.1789 6.95244 84.6039 10.9569 84.6039 16.9952C84.6039 22.9956 88.1789 27 93.6487 27ZM93.6613 23.8293C90.0864 23.8293 88.4189 20.7091 88.4189 16.9826C88.4189 13.2686 90.0864 10.1105 93.6613 10.1105C97.211 10.1105 98.8785 13.2686 98.8785 16.9826C98.8785 20.7091 97.211 23.8293 93.6613 23.8293Z" fill="white"/>
</svg>
