<svg xmlns="http://www.w3.org/2000/svg" version="1.1" xmlns:xlink="http://www.w3.org/1999/xlink" xmlns:svgjs="http://svgjs.com/svgjs" width="104" height="27"><svg width="104" height="27" viewBox="0 0 104 27" fill="none" xmlns="http://www.w3.org/2000/svg">
<path d="M0.876465 0.737305V26.6084H4.63485V7.8746H4.87774L12.599 26.5705H15.7182L23.4395 7.88723H23.6824V26.6084H27.4408V0.737305H22.647L14.312 20.8481H14.0052L5.67032 0.737305H0.876465Z" fill="black"></path>
<path d="M41.3398 27C45.6223 27 48.652 24.9157 49.5213 21.7576L45.9035 21.1133C45.2132 22.945 43.5514 23.8798 41.3781 23.8798C38.1055 23.8798 35.9068 21.7829 35.8045 18.0437H49.7642V16.7046C49.7642 9.69367 45.52 6.95244 41.0713 6.95244C35.6 6.95244 31.995 11.0706 31.995 17.0331C31.995 23.0587 35.5488 27 41.3398 27ZM35.8173 15.214C35.9707 12.4602 37.9905 10.0726 41.0969 10.0726C44.0627 10.0726 46.0058 12.2454 46.0186 15.214H35.8173Z" fill="black"></path>
<path d="M68.7191 11.9422C67.9265 8.92309 65.536 6.95244 61.2918 6.95244C56.8559 6.95244 53.7111 9.26416 53.7111 12.7002C53.7111 15.454 55.3986 17.2857 59.0802 18.0942L62.404 18.8142C64.296 19.2311 65.178 20.0649 65.178 21.2776C65.178 22.7808 63.5545 23.9556 61.0489 23.9556C58.7607 23.9556 57.2905 22.9829 56.8303 21.0754L53.1359 21.6313C53.775 25.0673 56.6641 27 61.0745 27C65.8172 27 69.1026 24.5115 69.1026 20.9997C69.1026 18.2584 67.3385 16.5657 63.7335 15.7446L60.6143 15.0372C58.4539 14.5319 57.5206 13.8118 57.5334 12.4981C57.5206 11.0074 59.157 9.94631 61.3302 9.94631C63.7079 9.94631 64.8073 11.2474 65.2547 12.5486L68.7191 11.9422Z" fill="black"></path>
<path d="M82.4711 7.20509H78.4442V2.55637H74.6219V7.20509H71.7456V10.2369H74.6219V21.6944C74.6091 25.2189 77.3321 26.9242 80.349 26.8611C81.5634 26.8484 82.3816 26.6211 82.829 26.4568L82.1387 23.3366C81.883 23.3872 81.41 23.5009 80.7964 23.5009C79.5564 23.5009 78.4442 23.0966 78.4442 20.9112V10.2369H82.4711V7.20509Z" fill="black"></path>
<path d="M94.7593 27C100.295 27 103.912 22.9956 103.912 16.9952C103.912 10.9569 100.295 6.95244 94.7593 6.95244C89.224 6.95244 85.6062 10.9569 85.6062 16.9952C85.6062 22.9956 89.224 27 94.7593 27ZM94.7721 23.8293C91.1543 23.8293 89.4669 20.7091 89.4669 16.9826C89.4669 13.2686 91.1543 10.1105 94.7721 10.1105C98.3643 10.1105 100.052 13.2686 100.052 16.9826C100.052 20.7091 98.3643 23.8293 94.7721 23.8293Z" fill="black"></path>
</svg><style>@media (prefers-color-scheme: light) { :root { filter: none; } }
@media (prefers-color-scheme: dark) { :root { filter: none; } }
</style></svg>